<svg width="25" height="25" viewBox="0 0 25 25" fill="none" xmlns="http://www.w3.org/2000/svg">
<path d="M6.84396 0.416992C5.06448 0.419109 3.35848 1.12695 2.1002 2.38523C0.841911 3.64352 0.134075 5.34951 0.131958 7.12899V17.869C0.134075 19.6485 0.841911 21.3545 2.1002 22.6128C3.35848 23.871 5.06448 24.5789 6.84396 24.581H17.584C19.3634 24.5789 21.0694 23.871 22.3277 22.6128C23.586 21.3545 24.2938 19.6485 24.296 17.869V7.12899C24.2938 5.34951 23.586 3.64352 22.3277 2.38523C21.0694 1.12695 19.3634 0.419109 17.584 0.416992H6.84396ZM6.84396 3.10199H17.584C18.6516 3.10332 19.6751 3.52801 20.43 4.28294C21.1849 5.03786 21.6096 6.06137 21.611 7.12899V17.869C21.6096 18.9366 21.1849 19.9601 20.43 20.715C19.6751 21.47 18.6516 21.8947 17.584 21.896H6.84396C5.77634 21.8947 4.75282 21.47 3.9979 20.715C3.24298 19.9601 2.81828 18.9366 2.81696 17.869V7.12899C2.81828 6.06137 3.24298 5.03786 3.9979 4.28294C4.75282 3.52801 5.77634 3.10332 6.84396 3.10199ZM18.926 4.44399C18.6605 4.44399 18.4011 4.5227 18.1804 4.67016C17.9597 4.81762 17.7877 5.02721 17.6861 5.27243C17.5845 5.51765 17.558 5.78748 17.6097 6.0478C17.6615 6.30812 17.7893 6.54725 17.977 6.73493C18.1647 6.92261 18.4038 7.05043 18.6641 7.10221C18.9245 7.15399 19.1943 7.12741 19.4395 7.02584C19.6847 6.92426 19.8943 6.75226 20.0418 6.53157C20.1893 6.31088 20.268 6.05141 20.268 5.78599C20.2677 5.43033 20.1264 5.08929 19.875 4.8377C19.6236 4.58611 19.2826 4.44452 18.927 4.44399H18.926ZM12.214 5.78699C10.8865 5.78699 9.58875 6.18064 8.48497 6.91817C7.38119 7.65569 6.52089 8.70396 6.01288 9.93042C5.50486 11.1569 5.37194 12.5064 5.63093 13.8084C5.88991 15.1104 6.52917 16.3064 7.46786 17.2451C8.40655 18.1838 9.60251 18.823 10.9045 19.082C12.2065 19.341 13.5561 19.2081 14.7825 18.7001C16.009 18.1921 17.0573 17.3318 17.7948 16.228C18.5323 15.1242 18.926 13.8265 18.926 12.499C18.9238 10.7195 18.216 9.01352 16.9577 7.75523C15.6994 6.49694 13.9934 5.78911 12.214 5.78699ZM12.214 8.47199C13.0104 8.47199 13.789 8.70817 14.4512 9.15067C15.1135 9.59316 15.6296 10.2221 15.9344 10.9579C16.2392 11.6938 16.319 12.5035 16.1636 13.2846C16.0082 14.0658 15.6247 14.7833 15.0615 15.3465C14.4983 15.9097 13.7807 16.2932 12.9996 16.4486C12.2184 16.604 11.4087 16.5243 10.6729 16.2195C9.93706 15.9147 9.30812 15.3985 8.86563 14.7363C8.42314 14.074 8.18696 13.2955 8.18696 12.499C8.18828 11.4314 8.61298 10.4079 9.3679 9.65294C10.1228 8.89801 11.1463 8.47332 12.214 8.47199Z" fill="white"/>
</svg>
