<svg width="31" height="25" viewBox="0 0 31 25" fill="none" xmlns="http://www.w3.org/2000/svg">
<path d="M30.1319 3.27392C29.0063 3.76908 27.8138 4.09526 26.5929 4.24191C27.8764 3.48071 28.8393 2.27866 29.3019 0.859919C28.0922 1.57193 26.7699 2.07243 25.3919 2.33991C24.4715 1.34632 23.2484 0.685 21.913 0.458933C20.5776 0.232866 19.2049 0.45475 18.0088 1.09003C16.8126 1.72531 15.8601 2.73832 15.2996 3.97128C14.7391 5.20425 14.6021 6.58797 14.9099 7.90692C12.4676 7.78688 10.0773 7.15747 7.89262 6.05909C5.70791 4.96071 3.77702 3.41763 2.22391 1.52892C1.43653 2.87241 1.19467 4.46681 1.54818 5.98338C1.90169 7.49994 2.82363 8.82305 4.12391 9.67992C3.1472 9.647 2.19175 9.38604 1.33391 8.91792V8.98992C1.33838 10.404 1.83246 11.7728 2.73215 12.8637C3.63183 13.9547 4.88158 14.7003 6.26891 14.9739C5.74207 15.1186 5.19825 15.1923 4.65191 15.1929C4.26264 15.19 3.87442 15.1522 3.49191 15.0799C3.89181 16.2954 4.65998 17.3564 5.68991 18.1158C6.71983 18.8751 7.96051 19.2953 9.23991 19.3179C7.05335 21.0144 4.36343 21.9332 1.59591 21.9289C1.1056 21.9296 0.615695 21.9006 0.128906 21.8419C2.95041 23.632 6.22345 24.5814 9.56491 24.5789C11.8596 24.6057 14.1366 24.176 16.2637 23.3149C18.3908 22.4538 20.3255 21.1784 21.9553 19.5628C23.5851 17.9473 24.8774 16.0239 25.7572 13.9044C26.6369 11.7849 27.0866 9.51171 27.0799 7.21692C27.0799 6.95292 27.0719 6.68892 27.0589 6.42992C28.2676 5.57333 29.3088 4.50226 30.1309 3.26991" fill="white"/>
</svg>
